# xmcd
#
# Track frame offsets:
#	150
#	14550
#	27825
#	40050
#	58050
#	70200
#	83175
#	97725
#	110400
#	125400
#	135150
#	149100
#
# Disc length: 2171 seconds
#
# Revision: 2
# Processed by: cddbd v1.5.1PL0 Copyright (c) Steve Scherf et al.
# Submitted via: audiograbber 1.83.01
#
DISCID=a008790c
DTITLE=Blues´N´Trouble - Hat Trick
DYEAR=1987
DGENRE=Blues
TTITLE0=I Got Your Number
TTITLE1=Why
TTITLE2=Cherry Peaches
TTITLE3=Travelling Light
TTITLE4=When The Lights Go Down
TTITLE5=Comin' Home
TTITLE6=What's The Matter
TTITLE7=Be Mine Tonight
TTITLE8=Rockin' With You Jimmy
TTITLE9=TNT
TTITLE10=See My Baby Shake It
TTITLE11=Don't Need No Doctor
EXTD=
EXTT0=
EXTT1=
EXTT2=
EXTT3=
EXTT4=
EXTT5=
EXTT6=
EXTT7=
EXTT8=
EXTT9=
EXTT10=
EXTT11=
PLAYORDER=
